<?xml version="1.0" encoding="UTF-8"?> <svg xmlns="http://www.w3.org/2000/svg" viewBox="0 0 48 48" width="48" height="48"><path fill="#455a64" d="M42,12c0,1.104-0.896,2-2,2H8c-1.104,0-2-0.896-2-2V8c0-1.104,0.896-2,2-2h32c1.104,0,2,0.896,2,2V12 z"></path><path fill="#64b5f6" d="M38,10v28c0,2.209-1.792,4-4,4H14c-2.21,0-4-1.791-4-4V10H38z"></path><path fill="#ffd54f" d="M21,29c0.553,0,1,0.447,1,1v5c0,0.553-0.447,1-1,1h-4c-0.553,0-1-0.447-1-1v-5c0-0.553,0.447-1,1-1 H21z M26,30v6h2v-6H26z M31,22v14h2V22H31z M26,22v6h2v-6H26z M26,14v6h2v-6H26z M26,10v2h2v-2H26z"></path><path fill="#e3f2fd" d="M16 10H20V25H16z"></path></svg> 