<?xml version="1.0" encoding="UTF-8"?> <svg xmlns="http://www.w3.org/2000/svg" viewBox="0 0 48 48" width="48" height="48"><path fill="#DD7C12" d="M44,5H9v27h35V5L44,5z"></path><path fill="#009688" d="M11 7H42V31H11z"></path><path fill="#773D04" d="M46,35v-2c0-1.1-0.9-2-2-2H9c-1.1,0-2,0.9-2,2v2H46z"></path><path fill="#00796B" d="M11 7L11 31 12 31 12 9 41 9 41 31 42 31 42 7z"></path><path fill="#FFF" d="M34.6,11c-0.6,0-1.6,0-1.6,0.6v5.2c0,0-0.3-0.1-0.9-0.1c-1.2,0.1-2.1,1-2.1,2c0,0.9,0.9,1.5,2.1,1.3c1.1-0.2,1.9-1,1.9-1.9c0,0,0-3.8,0-4.2c0-0.4,0.4-0.6,0.6-0.6c3.7,0,3.4,2.1,3.4,2.1S38.7,11,34.6,11z"></path><path fill="#FFB74D" d="M10,19c-2.8,0-5-2.2-5-5c0-2.8,2.3-5,5-5c2.8,0,5,2.2,5,5C15,16.8,12.7,19,10,19"></path><path fill="#841010" d="M10.1 14.600000000000001A2 1.7 0 1 0 10.1 18A2 1.7 0 1 0 10.1 14.600000000000001Z"></path><path fill="#FFB74D" d="M5 41L2 39 2 35 5 35zM28 21L28 24.6 24.8 27.3 23 24.8z"></path><path fill="#455A64" d="M24.8,22.9l-3.6,2.7c0,0-5.4-4.2-6.4-4.8c0,0-1.7-0.8-3.7-0.8c0,0,0,0,0,0c0,0,0,0,0,0c-0.2,0-0.4,0-0.7,0c-0.1,0-0.2,0-0.3,0c-6.4,0-8,3.6-8,8v8l3,2v5h2h8l0.5-13.4V27l5.3,3.4c0.2,0.1,1.1,0.1,1.6-0.2l4.8-4L24.8,22.9z"></path><path fill="#E3F2FD" d="M10,24l2.6-3.9c-0.5-0.1-1-0.1-1.5-0.1c0,0,0,0,0,0c0,0,0,0,0,0c-0.2,0-0.4,0-0.7,0c-0.1,0-0.2,0-0.3,0c-0.9,0-1.8,0.1-2.5,0.2L10,24z"></path></svg> 