<?xml version="1.0" encoding="UTF-8"?> <svg xmlns="http://www.w3.org/2000/svg" viewBox="0 0 48 48" width="48px" height="48px"><path fill="#CFD8DC" d="M2,33c0,0,2.768-6,10-6c7.231,0,10,6,10,6l0,4H2V33z M46,33c0,0-2.769-6-10-6c-7.232,0-10,6-10,6l0,4h20L46,33z M12,25c2.761,0,5-2.238,5-5s-2.239-5-5-5c-2.763,0-5,2.238-5,5S9.237,25,12,25 M36,25c2.762,0,5-2.238,5-5s-2.238-5-5-5s-5,2.238-5,5S33.238,25,36,25"></path><path fill="#FFB74D" d="M30,16c0,3.315-2.686,6-6,6c-3.314,0-6-2.685-6-6s2.686-6,6-6C27.313,10,30,12.686,30,16"></path><path fill="#546E7A" d="M36,32c0,0-3.321-7-12-7c-8.68,0-12,7-12,7v5h24L36,32z"></path></svg> 