<?xml version="1.0" encoding="UTF-8"?> <svg xmlns="http://www.w3.org/2000/svg" viewBox="0 0 48 48" width="48px" height="48px"><path fill="#90CAF9" d="M42,39H17V7c0-2.2,1.8-4,4-4h8.4H38c2.2,0,4,1.8,4,4V39z"></path><path fill="#64B5F6" d="M17 39H42V41H17z"></path><path fill="#BF360C" d="M31 32H37V41H31z"></path><path fill="#1565C0" d="M37,29h-6v-5h6V29z M28,24h-6v5h6V24z M28,32h-6v5h6V32z M37,16h-6v5h6V16z M28,16h-6v5h6V16z M37,8h-6v5h6V8z M28,8h-6v5h6V8z"></path><path fill="#FFA726" d="M26,26.5c0,0.8-0.7,1.5-1.5,1.5c-0.8,0-1.5-0.7-1.5-1.5s0.7-1.5,1.5-1.5C25.3,25,26,25.7,26,26.5 M13,26.5c0-0.8-0.7-1.5-1.5-1.5S10,25.7,10,26.5s0.7,1.5,1.5,1.5S13,27.3,13,26.5"></path><path fill="#FF9800" d="M18,39c-4,0-4-4-4-4v-4h8v4C22,35,22,39,18,39z"></path><path fill="#FFB74D" d="M25,22.7c0-5.9-14-3.8-14,0v4.4c0,3.8,3.1,6.9,7,6.9c3.9,0,7-3.1,7-6.9V22.7z"></path><path fill="#424242" d="M18,15c-4.9,0-8,4.3-8,8.2V25l2,2v-4l9.2-3l2.8,3v4l2-2v-0.8c0-3.2-0.8-6.8-4.8-7.6L20.4,15H18z"></path><path fill="#784719" d="M20,26c0-0.6,0.4-1,1-1s1,0.4,1,1s-0.4,1-1,1S20,26.6,20,26 M14,26c0,0.6,0.4,1,1,1s1-0.4,1-1s-0.4-1-1-1S14,25.4,14,26"></path><path fill="#455A64" d="M22,35l-4,2l-4-2c0,0-8,1.5-8,10h24c0-8.4-8.3-10-8.3-10"></path><path fill="#FFF" d="M18 44L22 35 18 36 14 35z"></path><path fill="#D32F2F" d="M17 39L16.7 41.1 18 44 19.3 41.1 19 39 20 38 18 36 16 38z"></path></svg> 