<?xml version="1.0" encoding="UTF-8"?> <svg xmlns="http://www.w3.org/2000/svg" viewBox="0 0 48 48" width="48px" height="48px"><path fill="#FF3D00" d="M8.444,32.9c1.562-1.563,4.095-1.563,5.657,0c1.562,1.562,1.562,4.095,0,5.656c-1.562,1.563-7.778,2.121-7.778,2.121S6.882,34.462,8.444,32.9z"></path><path fill="#FFEB3B" d="M9.858,34.314c0.781-0.781,2.048-0.781,2.829,0s0.781,2.047,0,2.828S9.151,37.85,9.151,37.85S9.078,35.096,9.858,34.314z"></path><path fill="#D1C4E9" d="M29.658,8.858c-2.121,2.12-20.507,20.507-20.507,20.507l8.485,8.484c0,0,18.385-18.384,20.506-20.506c1.118-1.118,2.036-4.391,2.658-7.24l-3.902-3.902C34.047,6.823,30.775,7.741,29.658,8.858z"></path><path fill="#7E57C2" d="M21.172 41.385L19.05 36.437 27.535 27.951 26.122 36.436zM5.616 25.829L10.565 27.951 19.05 19.466 10.565 20.879zM36.898 6.2l3.902 3.902c.559-2.56.877-4.78.877-4.78S39.459 5.643 36.898 6.2zM17.637 37.85L14.808 37.85 9.151 32.193 9.151 29.365z"></path><g><path fill="#311B92" d="M29.657 15.344000000000001A2 2 0 1 0 29.657 19.344 2 2 0 1 0 29.657 15.344000000000001zM24.707 20.293A2 2 0 1 0 24.707 24.293 2 2 0 1 0 24.707 20.293zM19.758 25.243A2 2 0 1 0 19.758 29.243 2 2 0 1 0 19.758 25.243z"></path></g></svg> 